<svg xmlns="http://www.w3.org/2000/svg" xmlns:xlink="http://www.w3.org/1999/xlink" xml:space="preserve" id="Layer_1" width="513.5" height="110.7" x="0" y="0" viewBox="0 0 513.5 110.7"><style>.st1{fill:#1d1d1b}</style><defs><path id="SVGID_1_" d="M19.1 15c-.5 0-1.1 0-1.6.1s-1.1.2-1.6.4-1 .5-1.5.8-.9.7-1.3 1.1l-.1.1v.2l-.1.1-.1.1c-4.2 4.4-7.4 9.6-9.6 15.2A50.3 50.3 0 0 0 0 50.7c0 6 1.1 11.9 3.2 17.5 2.1 5.5 5.3 10.6 9.5 14.9 2.2 2.3 4.6 4.2 7.2 5.9 2.5 1.6 5.1 2.9 7.8 3.8 2.7 1 5.4 1.6 8.2 1.9 2.7.3 5.5.3 8.2.1 2.4-.2 4.9-.7 7.2-1.4 2.4-.7 4.7-1.7 6.9-2.8 2.2-1.2 4.3-2.5 6.4-4.1q3-2.4 5.7-5.4c-1.4 1.6-3 3.1-4.6 4.3q-2.4 1.95-5.1 3.3c-1.8.9-3.6 1.7-5.5 2.2-1.9.6-3.8.9-5.7 1.1-2.2.2-4.4.2-6.5-.1-2.2-.3-4.4-.8-6.5-1.6s-4.2-1.8-6.2-3.1-3.9-2.9-5.6-4.7c-3.3-3.4-5.7-7.4-7.4-11.8s-2.5-9.1-2.5-13.8.8-9.5 2.5-14 4.1-8.6 7.4-12.2l.1-.1.1-.1.1-.1.1-.1c.8-.8 1.3-1.8 1.7-2.9.4-1 .5-2.1.5-3.3 0-1.1-.2-2.2-.7-3.3-.4-1.1-1-2-1.8-2.9-.4-.4-.8-.8-1.3-1.1s-.9-.6-1.4-.8-1-.4-1.5-.5c-.3-.4-.8-.5-1.4-.5"/></defs><use xlink:href="#SVGID_1_" style="overflow:visible;fill:#1d1d1b"/><clipPath id="SVGID_2_"><use xlink:href="#SVGID_1_" style="overflow:visible"/></clipPath><g style="clip-path:url(#SVGID_2_)"><image xlink:href="9F349FA76D647B64.png" width="294" height="334" style="overflow:visible" transform="matrix(.24 0 0 .24 -.002 14.996)"/></g><defs><path id="SVGID_3_" d="M34.8 30.8c-.4 0-.8 0-1.1.1-.4.1-.7.2-1.1.3-.4.2-.7.4-1 .6s-.6.5-.9.8l-.1.1-.1.1-.1.1-.1.1c-3 3.3-5.2 7.1-6.8 11.1-1.5 4.1-2.3 8.4-2.3 12.8 0 4.3.7 8.6 2.2 12.6s3.7 7.7 6.7 10.8c1.6 1.7 3.3 3.1 5.1 4.3s3.7 2.1 5.6 2.9c1.9.7 3.9 1.2 5.9 1.5s4 .3 5.9.1c1.8-.2 3.6-.5 5.3-1q2.55-.75 5.1-2.1c1.6-.9 3.2-1.9 4.7-3.1s2.9-2.5 4.2-4v-.1c-1 1.2-2.1 2.2-3.3 3.2s-2.5 1.8-3.8 2.5-2.7 1.2-4.1 1.6-2.8.7-4.2.8c-1.6.1-3.2.1-4.8-.1s-3.2-.6-4.7-1.2-3-1.4-4.4-2.3c-1.4-1-2.8-2.1-4-3.5-2.3-2.5-4.1-5.5-5.2-8.6-1.2-3.2-1.7-6.6-1.7-10.1q0-5.25 1.8-10.2c1.2-3.3 3-6.3 5.3-9l.1-.1.1-.1.1-.1.1-.1q.9-.9 1.2-2.1c.3-.8.4-1.6.4-2.4s-.2-1.6-.5-2.4-.7-1.5-1.3-2.1c-.3-.3-.6-.6-.9-.8s-.7-.4-1-.6-.7-.3-1.1-.4c-.5.1-.9.1-1.2.1"/></defs><use xlink:href="#SVGID_3_" style="overflow:visible;fill:#1d1d1b"/><clipPath id="SVGID_4_"><use xlink:href="#SVGID_3_" style="overflow:visible"/></clipPath><g style="clip-path:url(#SVGID_4_)"><image xlink:href="9F349FA76D647B65.png" width="212" height="244" style="overflow:visible" transform="matrix(.24 0 0 .24 21.179 30.8)"/></g><defs><path id="SVGID_5_" d="M75 44.4h-.4c-.1 0-.2 0-.4.1-.1 0-.2.1-.4.1-.1 0-.2.1-.4.2-.5.2-.9.6-1.3 1s-.6.9-.8 1.4-.3 1.1-.3 1.7.1 1.2.3 1.7v.4c.8 2.4 1.2 4.8 1.2 7.3 0 2.4-.4 4.9-1.2 7.1q-1.2 3.45-3.3 6.3c-1.5 1.9-3.2 3.5-5.3 4.8-.6.4-1.2.7-1.8 1s-1.2.5-1.9.7c-.6.2-1.3.4-1.9.5s-1.3.2-1.9.3c-1.7.1-3.3 0-4.9-.4s-3.2-1-4.6-1.9c-1.5-.9-2.8-2-4-3.4s-2.2-3-3.1-4.8c1 2.2 2.3 4.2 3.7 5.9 1.5 1.7 3.1 3.1 4.9 4.2q2.7 1.65 5.7 2.4c2 .5 4 .6 6 .5.8-.1 1.5-.2 2.3-.3.8-.2 1.5-.4 2.3-.6s1.5-.5 2.2-.9c.7-.3 1.5-.7 2.2-1.2 2.5-1.5 4.7-3.5 6.4-5.9 1.7-2.3 3.1-4.9 4-7.7s1.4-5.7 1.4-8.7-.5-6-1.5-8.8V47c-.1-.4-.3-.8-.6-1.1-.2-.3-.5-.6-.8-.8s-.6-.4-1-.5c0-.1-.4-.2-.8-.2"/></defs><use xlink:href="#SVGID_5_" style="overflow:visible;fill:#1d1d1b"/><clipPath id="SVGID_6_"><use xlink:href="#SVGID_5_" style="overflow:visible"/></clipPath><g style="clip-path:url(#SVGID_6_)"><image xlink:href="9F349FA76D647B63.png" width="172" height="155" style="overflow:visible" transform="matrix(.24 0 0 .24 38.908 44.413)"/></g><defs><path id="SVGID_7_" d="M65.9 48.8h-.3c-.1 0-.2 0-.3.1-.1 0-.2.1-.3.1s-.2.1-.3.1c-.4.2-.7.4-1 .8-.3.3-.5.7-.6 1.1s-.1.8-.1 1.2.1.9.2 1.3v.2c.7 1.8 1 3.7 1 5.5q0 2.85-.9 5.4c-.6 1.7-1.4 3.4-2.6 4.8-1.1 1.4-2.5 2.7-4.1 3.6-.5.3-.9.5-1.4.7s-.9.4-1.4.5-1 .3-1.4.4c-.5.1-1 .1-1.4.2-1.3.1-2.5 0-3.7-.3s-2.4-.8-3.5-1.4c-1.1-.7-2.1-1.5-3-2.5s-1.8-2.3-2.3-3.5c.7 1.7 1.7 3.1 2.8 4.4s2.4 2.3 3.7 3.1 2.8 1.4 4.3 1.8 3 .5 4.6.4c.6 0 1.2-.1 1.8-.2s1.2-.3 1.7-.4c.6-.2 1.1-.4 1.7-.7s1.1-.5 1.7-.9c1.9-1.2 3.6-2.7 5-4.4 1.3-1.8 2.4-3.7 3.1-5.9.7-2.1 1.1-4.4 1.1-6.6 0-2.3-.4-4.5-1.2-6.7v-.3c-.1-.3-.3-.6-.5-.9q-.3-.45-.6-.6c-.2-.2-.5-.3-.8-.4z"/></defs><use xlink:href="#SVGID_7_" style="overflow:visible;fill:#1d1d1b"/><clipPath id="SVGID_8_"><use xlink:href="#SVGID_7_" style="overflow:visible"/></clipPath><g style="clip-path:url(#SVGID_8_)"><image xlink:href="9F349FA76D647B6C.png" width="132" height="118" style="overflow:visible" transform="matrix(.24 0 0 .24 38.4 48.807)"/></g><g style="clip-path:url(#SVGID_8_)"><image xlink:href="9F349FA76D647B6F.png" width="132" height="1" style="overflow:visible" transform="matrix(.24 0 0 .24 38.387 66.963)"/></g><path d="M100.8 0v110.7" style="fill:none;stroke:#1d1d1b;stroke-width:.75;stroke-miterlimit:10"/><path d="M131.4 63.6c9.7 0 14.6 7.5 14.6 14.9 0 7.5-4.9 14.8-14.6 14.8h-10.1V63.6zm0 28.8c9.1 0 13.7-6.9 13.7-13.9s-4.6-14-13.7-14h-9.2v27.9zM152.2 92.4h15.6v.9h-16.6V63.5h16.5v.9h-15.6V78h15.2v.9h-15.2v13.5zM201.6 67.9c.3.9.5 1.9.5 2.9s-.2 2-.5 2.9c-.6 1.5-1.6 2.8-3.1 3.6 3.9.9 5.8 4.4 5.8 7.9 0 4-2.6 8.2-7.8 8.2h-13.3V63.6h12.1c3.3 0 5.3 1.9 6.3 4.3M184.2 77h11.1c2.8 0 4.6-1.7 5.5-3.7.3-.8.5-1.7.5-2.6 0-.8-.2-1.7-.5-2.6-.9-2-2.7-3.7-5.5-3.7h-11.1zm0 15.4h12.3c4.6 0 6.9-3.6 6.9-7.2s-2.3-7.3-6.9-7.3h-12.3zM209.8 93.3h-.9V63.6h10.3c6 0 9 4.4 9 8.8s-3 8.7-9 8.7h-4.5l13.6 12.3H227L213.4 81v-.8h5.8c5.4 0 8.1-3.9 8.1-7.8s-2.7-7.8-8.1-7.8h-9.4zM251 83.5h-14.8l-4 9.9h-1l11.9-30.2h.9l12 30.2h-1zm-14.3-.9h14c-2.4-6.1-4.6-11.9-7-18zM272.8 64.5h-6.3v28h6.3v.9h-13.4v-.9h6.3v-28h-6.3v-.9h13.4zM277.4 93.3V63.5h.8l19.4 28.1v-28h.9v29.8h-.8l-19.3-27.9v27.9h-1zM305.3 92.4h15.6v.9h-16.6V63.5h16.5v.9h-15.6V78h15.2v.9h-15.2v13.5zM325.6 78h10.5v.9h-10.5zM343 92.4h15.8v.9H342V63.4h.9v29zM363 69l2-5.5h1.4L364 69zM389.4 83.5h-14.8l-4 9.9h-1l11.9-30.2h.9l12 30.2h-1zm-14.3-.9h14c-2.4-6.1-4.6-11.9-7-18zM400.1 92.4H416v.9h-16.8V63.4h.9zM421.2 92.4H437v.9h-16.8V63.4h.9v29zM440.6 92.4h15.6v.9h-16.6V63.5h16.5v.9h-15.6V78h15.2v.9h-15.2v13.5zM460.9 85.2V63.6h.9v21.6c0 5 5.1 7.5 9.5 7.5 4.5 0 9.5-2.5 9.5-7.5V63.6h.9v21.6c0 5.5-5.5 8.4-10.4 8.4-4.8.1-10.4-2.8-10.4-8.4M497.4 63.6c9.7 0 14.6 7.5 14.6 14.9 0 7.5-4.9 14.8-14.6 14.8h-10.1V63.6zm0 28.8c9.1 0 13.7-6.9 13.7-13.9s-4.6-14-13.7-14h-9.2v27.9zM149.8 26c-.8-1.8-1.9-3.4-3.2-4.7-2.7-2.9-6.6-4.6-10.9-4.6-4.2 0-8.1 1.7-10.9 4.6-2.7 2.8-4.5 6.8-4.5 11.4 0 4.7 1.8 8.5 4.5 11.3 2.8 2.9 6.7 4.6 10.9 4.6 4.3 0 8.1-1.8 10.9-4.6 1.3-1.3 2.4-2.8 3.2-4.6h1.1c-.9 2-2.1 3.9-3.6 5.4-3 3.1-7 4.9-11.6 4.9s-8.6-1.9-11.6-4.9c-2.9-3.1-4.8-6.8-4.8-12 0-5 1.9-9.1 4.8-12.2 3-3.1 7-4.9 11.6-4.9s8.6 1.9 11.6 4.9c1.5 1.5 2.7 3.4 3.6 5.4zM157.3 48.5h17.6v1h-18.6V15.9h18.5v1h-17.5v15.3h17.1v1h-17.1zM181.3 49.5V16h.9L204 47.6V16.1h1v33.4h-1l-21.7-31.3v31.3zM220.7 49.5V17.1h-11.5V16h23.9v1.1h-11.5v32.4zM238.9 49.5h-1V16.1h11.6c6.8 0 10.1 5 10.1 9.9s-3.4 9.8-10.1 9.8h-5l15.3 13.8h-1.5L243 35.7v-.9h6.6c6.1 0 9.1-4.4 9.1-8.8s-3-8.8-9.1-8.8H239v32.3zM266.2 48.5h17.6v1h-18.6V15.9h18.5v1h-17.5v15.3h17.1v1h-17.1zM330.2 26c-.8-1.8-1.9-3.4-3.2-4.7-2.7-2.9-6.6-4.6-10.9-4.6-4.2 0-8.1 1.7-10.9 4.6-2.7 2.8-4.5 6.8-4.5 11.4 0 4.7 1.8 8.5 4.5 11.3 2.8 2.9 6.7 4.6 10.9 4.6 4.3 0 8.1-1.8 10.9-4.6 1.3-1.3 2.4-2.8 3.2-4.6h1.1c-.9 2-2.1 3.9-3.6 5.4-3 3.1-7 4.9-11.6 4.9s-8.6-1.9-11.6-4.9c-2.9-3.1-4.8-6.8-4.8-12 0-5 1.9-9.1 4.8-12.2 3-3.1 7-4.9 11.6-4.9s8.6 1.9 11.6 4.9c1.5 1.5 2.7 3.4 3.6 5.4zM337.1 40.3V16.1h1.1v24.3c0 5.7 5.7 8.4 10.7 8.4s10.7-2.8 10.7-8.5V16.1h1v24.3c0 6.2-6.2 9.5-11.7 9.5-5.6 0-11.8-3.3-11.8-9.6M368.3 48.4H386v1.1h-18.8V15.9h1.1zM396.1 49.5V17.1h-11.5V16h23.9v1.1H397v32.4zM413.3 40.3V16.1h1.1v24.3c0 5.7 5.7 8.4 10.7 8.4s10.7-2.8 10.7-8.5V16.1h1v24.3c0 6.2-6.2 9.5-11.7 9.5-5.6 0-11.8-3.3-11.8-9.6M444.4 49.5h-1V16.1H455c6.8 0 10.1 5 10.1 9.9s-3.4 9.8-10.1 9.8h-5l15.3 13.8h-1.5l-15.3-13.9v-.9h6.6c6.1 0 9.1-4.4 9.1-8.8s-3-8.8-9.1-8.8h-10.6v32.3zM471.7 48.5h17.6v1h-18.6V15.9h18.5v1h-17.5v15.3h17.1v1h-17.1zM495.7 48.4h17.8v1.1h-18.8V15.9h1.1v32.5z" class="st1"/></svg>